<?xml version="1.0" encoding="utf-8"?>
<!-- Generator: Adobe Illustrator 26.5.0, SVG Export Plug-In . SVG Version: 6.00 Build 0)  -->
<svg version="1.1" id="Layer_1" xmlns="http://www.w3.org/2000/svg" xmlns:xlink="http://www.w3.org/1999/xlink" x="0px" y="0px"
	 viewBox="0 0 70.1 104.7" style="enable-background:new 0 0 70.1 104.7;" xml:space="preserve">
<style type="text/css">
	.st0{fill:#B3B3B3;}
	.st1{fill:#F3F3F3;}
	.st2{fill:#333333;}
	.st3{fill:#4E4E4E;}
</style>
<path class="st0" d="M70.1,102c0,1.5-1.2,2.7-2.7,2.7H3.7c-1.5,0-2.7-1.2-2.7-2.7V3.7C1,2.2,2.2,1,3.7,1h63.7c1.5,0,2.7,1.2,2.7,2.7
	V102z"/>
<g>
	<path class="st1" d="M69.1,101c0,1.5-1.2,2.7-2.7,2.7H2.7c-1.5,0-2.7-1.2-2.7-2.7V2.7C0,1.2,1.2,0,2.7,0h63.7
		c1.5,0,2.7,1.2,2.7,2.7V101z"/>
	<g>
		<path class="st2" d="M54.2,54.4c0,6.1-5.5,9.5-10.8,8.7c-2.8-0.4-4.8-2.1-6.4-4.2c-1.6-1.9-2-0.7-1.7,0.6c1,5.8,3.6,9.1,8.6,10.7
			c0.5,0.2,2.6,0.6,0.7,0.6H24.7c-1.9,0,0.2-0.5,0.7-0.6c4.9-1.5,7.6-4.9,8.6-10.7c0.2-1.3-0.2-2.5-1.7-0.6c-1.7,2-3.7,3.7-6.5,4.2
			C20.5,63.9,15,60.5,15,54.4l0,0c0-4.4,3.5-9.3,8.1-8.9c0.3,0,2.5,0.5,3.2-0.2c1-1-0.4-1.7-0.5-3.8l0,0c-0.1-5.2,3.4-8,7.4-8.5l0,0
			c0,0,0.9-0.1,1.3-0.1c0.7,0,1.3,0.1,1.5,0.1l0,0c4,0.5,7.6,3.3,7.4,8.5l0,0c-0.1,2.2-1.5,2.9-0.5,3.8c0.7,0.7,2.9,0.2,3.2,0.2
			C50.6,45.1,54.2,50,54.2,54.4L54.2,54.4z"/>
		<path class="st3" d="M34.5,32.9L34.5,32.9c-0.4,0-1.3,0.1-1.3,0.1l0,0c-4,0.5-7.6,3.3-7.4,8.5l0,0c0.1,2.2,1.5,2.9,0.5,3.8
			c-0.7,0.7-2.9,0.2-3.2,0.2C18.5,45.1,15,50,15,54.4l0,0c0,6.1,5.5,9.5,10.8,8.7c2.8-0.4,4.8-2.1,6.5-4.2c1.6-1.9,1.9-0.7,1.7,0.6
			c-1,5.8-3.6,9.1-8.6,10.7c-0.5,0.2-2.6,0.6-0.7,0.6h9.8V32.9z"/>
	</g>
	<g>
		<path class="st2" d="M6.1,8.1l-0.8,2.3h-1l2.5-7.3H8l2.5,7.3h-1L8.7,8.1H6.1z M8.5,7.4L7.8,5.3C7.6,4.8,7.5,4.4,7.4,4l0,0
			C7.3,4.4,7.1,4.8,7,5.3L6.3,7.4H8.5z"/>
	</g>
	<g>
		<path class="st2" d="M63,95.5l0.8-2.3h1l-2.5,7.3h-1.1l-2.5-7.3h1l0.8,2.3H63z M60.6,96.3l0.7,2.1c0.2,0.5,0.3,0.9,0.4,1.3l0,0
			c0.1-0.4,0.2-0.9,0.4-1.3l0.7-2.1H60.6z"/>
	</g>
	<g>
		<path class="st2" d="M3.5,96.3c0-1.2,1.1-1.9,2.2-1.7c0.5,0.1,1,0.4,1.3,0.8s0.4,0.1,0.3-0.1c-0.2-1.2-0.7-1.8-1.7-2.1
			c-0.1,0-0.5-0.1-0.1-0.1h3.9c0.4,0,0,0.1-0.1,0.1c-1,0.3-1.5,1-1.7,2.1c0,0.2,0,0.5,0.3,0.1s0.7-0.7,1.3-0.8
			c1.1-0.2,2.2,0.5,2.2,1.7l0,0c0,0.9-0.7,1.8-1.6,1.8c-0.1,0-0.5-0.1-0.6,0c-0.2,0.2,0.1,0.3,0.1,0.8l0,0c0,1-0.7,1.6-1.5,1.7l0,0
			H7.6c-0.1,0-0.3,0-0.3,0l0,0c-0.8-0.1-1.5-0.7-1.5-1.7l0,0c0-0.4,0.3-0.6,0.1-0.8c-0.1-0.1-0.6,0-0.6,0
			C4.2,98.1,3.5,97.2,3.5,96.3L3.5,96.3z"/>
		<path class="st3" d="M7.4,100.6L7.4,100.6c0.1,0,0.3,0,0.3,0l0,0c0.8-0.1,1.5-0.7,1.5-1.7l0,0c0-0.4-0.3-0.6-0.1-0.8
			c0.1-0.1,0.6,0,0.6,0c0.9,0.1,1.6-0.9,1.6-1.8l0,0c0-1.2-1.1-1.9-2.2-1.7c-0.6,0.1-1,0.4-1.3,0.8s-0.4,0.1-0.3-0.1
			c0.2-1.2,0.7-1.8,1.7-2.1c0.1,0,0.5-0.1,0.1-0.1H7.4V100.6z"/>
	</g>
	<g>
		<path class="st2" d="M65.6,7.4c0,1.2-1.1,1.9-2.2,1.7c-0.5-0.1-1-0.4-1.3-0.8c-0.3-0.4-0.4-0.1-0.3,0.1c0.2,1.2,0.7,1.8,1.7,2.1
			c0.1,0,0.5,0.1,0.1,0.1h-3.9c-0.4,0,0-0.1,0.1-0.1c1-0.3,1.5-1,1.7-2.1c0-0.3,0-0.5-0.3-0.1C60.9,8.7,60.5,9,60,9.1
			c-1.1,0.2-2.2-0.5-2.2-1.7l0,0c0-0.9,0.7-1.8,1.6-1.8c0.1,0,0.5,0.1,0.6,0c0.3-0.2,0-0.3,0-0.8l0,0c0-1,0.7-1.6,1.5-1.7l0,0h0.2
			c0.1,0,0.3,0,0.3,0l0,0c0.8,0.1,1.5,0.7,1.5,1.7l0,0c0,0.4-0.3,0.6-0.1,0.8c0.1,0.1,0.6,0,0.6,0C64.9,5.6,65.6,6.5,65.6,7.4
			L65.6,7.4z"/>
		<path class="st3" d="M61.7,3.1L61.7,3.1c-0.1,0-0.3,0-0.3,0l0,0C60.7,3.2,60,3.8,60,4.8l0,0c0,0.4,0.3,0.6,0.1,0.8
			c-0.1,0.1-0.6,0-0.6,0c-0.9-0.1-1.6,0.9-1.6,1.8l0,0c0,1.2,1.1,1.9,2.2,1.7c0.6-0.1,1-0.4,1.3-0.8c0.3-0.4,0.4-0.1,0.3,0.1
			c-0.2,1.2-0.7,1.8-1.7,2.1c-0.1,0-0.5,0.1-0.1,0.1h1.9V3.1H61.7z"/>
	</g>
</g>
</svg>
