<?xml version="1.0" encoding="utf-8"?>
<!-- Generator: Adobe Illustrator 26.5.0, SVG Export Plug-In . SVG Version: 6.00 Build 0)  -->
<svg version="1.1" id="Layer_1" xmlns="http://www.w3.org/2000/svg" xmlns:xlink="http://www.w3.org/1999/xlink" x="0px" y="0px"
	 viewBox="0 0 70.1 104.7" style="enable-background:new 0 0 70.1 104.7;" xml:space="preserve">
<style type="text/css">
	.st0{fill:#B3B3B3;}
	.st1{fill:#F3F3F3;}
	.st2{fill:#7B2B2C;}
	.st3{fill:#953435;}
</style>
<path class="st0" d="M70.1,102c0,1.5-1.2,2.7-2.7,2.7H3.7c-1.5,0-2.7-1.2-2.7-2.7V3.7C1,2.2,2.2,1,3.7,1h63.7c1.5,0,2.7,1.2,2.7,2.7
	V102z"/>
<g>
	<path class="st1" d="M69.1,101c0,1.5-1.2,2.7-2.7,2.7H2.7c-1.5,0-2.7-1.2-2.7-2.7V2.7C0,1.2,1.2,0,2.7,0h63.7
		c1.5,0,2.7,1.2,2.7,2.7V101z"/>
	<g>
		<polygon class="st2" points="34.6,71.1 20.4,51.8 34.6,32.6 48.7,51.8 		"/>
		<polygon class="st3" points="34.5,32.6 20.4,51.8 34.5,71 		"/>
	</g>
	<g>
		<polygon class="st2" points="7.4,92.5 10.2,96.3 7.4,100.1 4.6,96.3 		"/>
		<polygon class="st3" points="7.4,100.1 10.2,96.3 7.4,92.5 		"/>
	</g>
	<g>
		<path class="st2" d="M6.1,8.1l-0.8,2.3h-1l2.5-7.3H8l2.5,7.3h-1L8.7,8.1H6.1z M8.5,7.4L7.8,5.3C7.6,4.8,7.5,4.4,7.4,4l0,0
			C7.3,4.4,7.1,4.8,7,5.3L6.3,7.4H8.5z"/>
	</g>
	<g>
		<path class="st2" d="M63.1,95.5l0.8-2.3h1l-2.5,7.3h-1.1l-2.5-7.3h1l0.8,2.3H63.1z M60.7,96.3l0.7,2.1c0.2,0.5,0.3,0.9,0.4,1.3
			l0,0c0.1-0.4,0.2-0.9,0.4-1.3l0.7-2.1H60.7z"/>
	</g>
	<g>
		<polygon class="st2" points="61.7,11.2 58.9,7.4 61.7,3.6 64.5,7.4 		"/>
		<polygon class="st3" points="61.7,3.6 58.9,7.4 61.7,11.2 		"/>
	</g>
</g>
</svg>
