<?xml version="1.0" encoding="utf-8"?>
<!-- Generator: Adobe Illustrator 26.5.0, SVG Export Plug-In . SVG Version: 6.00 Build 0)  -->
<svg version="1.1" id="Layer_1" xmlns="http://www.w3.org/2000/svg" xmlns:xlink="http://www.w3.org/1999/xlink" x="0px" y="0px"
	 viewBox="0 0 70.1 104.7" style="enable-background:new 0 0 70.1 104.7;" xml:space="preserve">
<style type="text/css">
	.st0{fill:#B3B3B3;}
	.st1{fill:#F3F3F3;}
	.st2{fill:#7B2B2C;}
	.st3{fill:#953435;}
</style>
<path class="st0" d="M70.1,102c0,1.5-1.2,2.7-2.7,2.7H3.7c-1.5,0-2.7-1.2-2.7-2.7V3.7C1,2.2,2.2,1,3.7,1h63.7c1.5,0,2.7,1.2,2.7,2.7
	V102z"/>
<g>
	<path class="st1" d="M69.1,101c0,1.5-1.2,2.7-2.7,2.7H2.7c-1.5,0-2.7-1.2-2.7-2.7V2.7C0,1.2,1.2,0,2.7,0h63.7
		c1.5,0,2.7,1.2,2.7,2.7V101z"/>
	<g>
		<path class="st2" d="M34.6,69.3l-2.7-2.7C22,57.9,15.6,52,15.6,44.8c0-5.9,4.6-10.4,10.4-10.4c3.2,0,6.5,3.5,8.6,5.9
			c2.1-2.5,5.3-5.9,8.6-5.9c5.9,0,10.4,4.6,10.4,10.4c0,7.2-6.5,13.1-16.3,21.9L34.6,69.3z M34.6,69.3"/>
		<path class="st3" d="M34.5,40.3c-2.1-2.5-5.3-5.9-8.5-5.9c-5.9,0-10.4,4.6-10.4,10.4c0,7.2,6.5,13.1,16.3,21.9l2.6,2.6V40.3z"/>
	</g>
	<g>
		<path class="st2" d="M61.7,11.7l-0.6-0.6C59,9.2,57.6,8,57.6,6.4c0-1.3,1-2.3,2.3-2.3c0.7,0,1.4,0.8,1.9,1.3
			c0.5-0.5,1.2-1.3,1.9-1.3c1.3,0,2.3,1,2.3,2.3c0,1.6-1.4,2.8-3.5,4.7L61.7,11.7z M61.7,11.7"/>
		<path class="st3" d="M61.7,5.4c-0.5-0.5-1.1-1.3-1.8-1.3c-1.3,0-2.3,1-2.3,2.3c0,1.6,1.4,2.8,3.5,4.7l0.6,0.6V5.4z"/>
	</g>
	<g>
		<path class="st2" d="M7.4,93L8,93.6c2.1,1.9,3.5,3.2,3.5,4.7c0,1.3-1,2.3-2.3,2.3c-0.7,0-1.4-0.8-1.9-1.3
			c-0.5,0.5-1.2,1.3-1.9,1.3c-1.3,0-2.3-1-2.3-2.3c0-1.6,1.4-2.8,3.5-4.7L7.4,93z M7.4,93"/>
		<path class="st3" d="M7.4,99.3c0.5,0.5,1.1,1.3,1.8,1.3c1.3,0,2.3-1,2.3-2.3c0-1.6-1.4-2.8-3.5-4.7L7.4,93V99.3z"/>
	</g>
	<g>
		<path class="st2" d="M6.1,9.1l-0.8,2.3h-1l2.5-7.3H8l2.5,7.3h-1L8.7,9.1H6.1z M8.5,8.4L7.8,6.3C7.6,5.8,7.5,5.4,7.4,5h0
			C7.3,5.4,7.1,5.8,7,6.3L6.3,8.4H8.5z"/>
	</g>
	<g>
		<path class="st2" d="M63,95.5l0.8-2.3h1l-2.5,7.3h-1.1l-2.5-7.3h1l0.8,2.3H63z M60.6,96.3l0.7,2.1c0.2,0.5,0.3,0.9,0.4,1.3h0
			c0.1-0.4,0.2-0.9,0.4-1.3l0.7-2.1H60.6z"/>
	</g>
</g>
</svg>
