<?xml version="1.0" encoding="utf-8"?>
<!-- Generator: Adobe Illustrator 26.5.0, SVG Export Plug-In . SVG Version: 6.00 Build 0)  -->
<svg version="1.1" id="Layer_1" xmlns="http://www.w3.org/2000/svg" xmlns:xlink="http://www.w3.org/1999/xlink" x="0px" y="0px"
	 viewBox="0 0 70.1 104.7" style="enable-background:new 0 0 70.1 104.7;" xml:space="preserve">
<style type="text/css">
	.st0{fill:#DDDDDD;}
	.st1{fill:#F3F3F3;}
	.st2{fill:#333333;}
	.st3{fill:#4E4E4E;}
	.st4{fill:none;}
	.st5{font-family:'MyriadPro-Regular';}
	.st6{font-size:10.8856px;}
</style>
<g>
	<path class="st0" d="M70.1,102c0,1.5-1.2,2.7-2.7,2.7H3.7c-1.5,0-2.7-1.2-2.7-2.7V3.7C1,2.2,2.2,1,3.7,1h63.7
		c1.5,0,2.7,1.2,2.7,2.7V102z"/>
	<g>
		<path class="st1" d="M69.1,101c0,1.5-1.2,2.7-2.7,2.7H2.7c-1.5,0-2.7-1.2-2.7-2.7V2.7C0,1.2,1.2,0,2.7,0h63.7
			c1.5,0,2.7,1.2,2.7,2.7V101z"/>
		<g>
			<path class="st2" d="M42.2,39.4c-2.3-1.9-4.6-3.8-6.4-5.9c-0.3-0.4-0.8-0.6-1.2-0.6h-0.1c-0.5,0-0.9,0.2-1.2,0.6
				c-1.8,2.1-4.2,4.1-6.4,5.9c-4.8,3.9-9.8,8-9.8,14.4c0,5.7,4,9.7,9.8,9.7c2.8,0,5.2-1.6,6.8-3.1c-0.8,3.4-2.3,7.4-5.1,10.5h11.9
				c-2.8-3.1-4.3-7.1-5.1-10.5c1.6,1.5,4.1,3.1,6.9,3.1c5.7,0,9.8-4,9.8-9.7C52,47.4,47,43.3,42.2,39.4z"/>
			<path class="st3" d="M34.5,70.8v-38h0c-0.5,0-0.9,0.2-1.2,0.6c-1.8,2.1-4.2,4.1-6.4,5.9c-4.8,3.9-9.8,8-9.8,14.4
				c0,5.7,4,9.7,9.8,9.7c2.8,0,5.2-1.6,6.8-3.1c-0.8,3.4-2.3,7.4-5.1,10.5H34.5z"/>
		</g>
		<g>
			<path class="st2" d="M8.9,13.8C8.5,13.4,8,13,7.7,12.6c-0.1-0.1-0.2-0.1-0.2-0.1h0c-0.1,0-0.2,0-0.2,0.1
				c-0.4,0.4-0.8,0.8-1.3,1.2c-1,0.8-1.9,1.6-1.9,2.9c0,1.1,0.8,1.9,1.9,1.9c0.6,0,1-0.3,1.4-0.6c-0.2,0.7-0.5,1.5-1,2.1h2.4
				c-0.6-0.6-0.8-1.4-1-2.1c0.3,0.3,0.8,0.6,1.4,0.6c1.1,0,1.9-0.8,1.9-1.9C10.9,15.4,9.9,14.6,8.9,13.8z"/>
			<path class="st3" d="M7.4,20v-7.5l0,0c-0.1,0-0.2,0-0.2,0.1c-0.4,0.4-0.8,0.8-1.3,1.2c-1,0.8-1.9,1.6-1.9,2.9
				c0,1.1,0.8,1.9,1.9,1.9c0.6,0,1-0.3,1.4-0.6c-0.2,0.7-0.5,1.5-1,2.1H7.4z"/>
		</g>
		<rect x="2.7" y="2.7" class="st4" width="9.4" height="9.8"/>
		<text transform="matrix(1 0 0 1 4.0772 10.4493)" class="st2 st5 st6">A</text>
		<g>
			<path class="st2" d="M60.2,89.9c0.5,0.4,0.9,0.8,1.3,1.2c0.1,0.1,0.1,0.1,0.2,0.1h0c0.1,0,0.2,0,0.2-0.1c0.4-0.4,0.8-0.8,1.3-1.2
				c1-0.8,1.9-1.6,1.9-2.9c0-1.1-0.8-1.9-1.9-1.9c-0.6,0-1,0.3-1.4,0.6c0.2-0.7,0.5-1.5,1-2.1h-2.4c0.6,0.6,0.8,1.4,1,2.1
				c-0.3-0.3-0.8-0.6-1.4-0.6c-1.1,0-1.9,0.8-1.9,1.9C58.2,88.3,59.2,89.1,60.2,89.9z"/>
			<path class="st3" d="M61.7,83.7v7.5l0,0c0.1,0,0.2,0,0.2-0.1c0.4-0.4,0.8-0.8,1.3-1.2c1-0.8,1.9-1.6,1.9-2.9
				c0-1.1-0.8-1.9-1.9-1.9c-0.6,0-1,0.3-1.4,0.6c0.2-0.7,0.5-1.5,1-2.1H61.7z"/>
		</g>
		<rect x="57" y="91.2" class="st4" width="9.4" height="9.8"/>
		<text transform="matrix(-1 0 0 -1 65.044 93.2335)" class="st2 st5 st6">A</text>
	</g>
</g>
</svg>
