<?xml version="1.0" encoding="utf-8"?>
<!-- Generator: Adobe Illustrator 26.5.0, SVG Export Plug-In . SVG Version: 6.00 Build 0)  -->
<svg version="1.1" id="Layer_1" xmlns="http://www.w3.org/2000/svg" xmlns:xlink="http://www.w3.org/1999/xlink" x="0px" y="0px"
	 viewBox="0 0 70.1 104.7" style="enable-background:new 0 0 70.1 104.7;" xml:space="preserve">
<style type="text/css">
	.st0{fill:#B3B3B3;}
	.st1{fill:#F2F2F2;}
	.st2{fill:#333333;}
	.st3{fill:#4D4D4D;}
</style>
<path class="st0" d="M70.1,102c0,1.5-1.2,2.7-2.7,2.7H3.7c-1.5,0-2.7-1.2-2.7-2.7V3.7C1,2.2,2.2,1,3.7,1h63.7c1.5,0,2.7,1.2,2.7,2.7
	V102z"/>
<g>
	<path class="st1" d="M69.1,101c0,1.5-1.2,2.7-2.7,2.7H2.7c-1.5,0-2.7-1.2-2.7-2.7V2.7C0,1.2,1.2,0,2.7,0h63.7
		c1.5,0,2.7,1.2,2.7,2.7V101z"/>
	<g>
		<path class="st2" d="M42.2,39.4c-2.3-1.9-4.6-3.8-6.4-5.9c-0.3-0.4-0.8-0.6-1.2-0.6h-0.1c-0.5,0-0.9,0.2-1.2,0.6
			c-1.8,2.1-4.2,4.1-6.4,5.9c-4.8,3.9-9.8,8-9.8,14.4c0,5.7,4,9.7,9.8,9.7c2.8,0,5.2-1.6,6.8-3.1c-0.8,3.4-2.3,7.4-5.1,10.5h11.9
			c-2.8-3.1-4.3-7.1-5.1-10.5c1.6,1.5,4.1,3.1,6.9,3.1c5.7,0,9.8-4,9.8-9.7C52,47.4,47,43.3,42.2,39.4z"/>
		<path class="st3" d="M34.5,70.8v-38h0c-0.5,0-0.9,0.2-1.2,0.6c-1.8,2.1-4.2,4.1-6.4,5.9c-4.8,3.9-9.8,8-9.8,14.4
			c0,5.7,4,9.7,9.8,9.7c2.8,0,5.2-1.6,6.8-3.1c-0.8,3.4-2.3,7.4-5.1,10.5H34.5z"/>
	</g>
	<g>
		<path class="st2" d="M63.3,4c-0.5-0.4-0.9-0.8-1.3-1.2c-0.1-0.1-0.2-0.1-0.2-0.1h0c-0.1,0-0.2,0-0.2,0.1c-0.4,0.4-0.8,0.8-1.3,1.2
			c-1,0.8-1.9,1.6-1.9,2.9c0,1.1,0.8,1.9,1.9,1.9c0.6,0,1-0.3,1.4-0.6c-0.2,0.7-0.5,1.5-1,2.1h2.4c-0.6-0.6-0.8-1.4-1-2.1
			c0.3,0.3,0.8,0.6,1.4,0.6c1.1,0,1.9-0.8,1.9-1.9C65.2,5.6,64.2,4.8,63.3,4z"/>
		<path class="st3" d="M61.7,10.3V2.7l0,0c-0.1,0-0.2,0-0.2,0.1c-0.4,0.4-0.8,0.8-1.3,1.2c-1,0.8-1.9,1.6-1.9,2.9
			c0,1.1,0.8,1.9,1.9,1.9c0.6,0,1-0.3,1.4-0.6c-0.2,0.7-0.5,1.5-1,2.1H61.7z"/>
	</g>
	<g>
		<path class="st2" d="M6.1,8.1l-0.8,2.3h-1l2.5-7.3H8l2.5,7.3h-1L8.7,8.1H6.1z M8.5,7.4L7.8,5.3C7.6,4.8,7.5,4.4,7.4,4h0
			C7.3,4.4,7.1,4.8,7,5.3L6.3,7.4H8.5z"/>
	</g>
	<g>
		<path class="st2" d="M5.9,99.3c0.5,0.4,0.9,0.8,1.3,1.2c0.1,0.1,0.1,0.1,0.2,0.1h0c0.1,0,0.2,0,0.2-0.1c0.4-0.4,0.8-0.8,1.3-1.2
			c1-0.8,1.9-1.6,1.9-2.9c0-1.1-0.8-1.9-1.9-1.9c-0.6,0-1,0.3-1.4,0.6c0.2-0.7,0.5-1.5,1-2.1H6.2c0.6,0.6,0.8,1.4,1,2.1
			c-0.3-0.3-0.8-0.6-1.4-0.6c-1.1,0-1.9,0.8-1.9,1.9C3.9,97.7,4.9,98.5,5.9,99.3z"/>
		<path class="st3" d="M7.4,93v7.5l0,0c0.1,0,0.2,0,0.2-0.1c0.4-0.4,0.8-0.8,1.3-1.2c1-0.8,1.9-1.6,1.9-2.9c0-1.1-0.8-1.9-1.9-1.9
			c-0.6,0-1,0.3-1.4,0.6c0.2-0.7,0.5-1.5,1-2.1H7.4z"/>
	</g>
	<g>
		<path class="st2" d="M63,95.5l0.8-2.3h1l-2.5,7.3h-1.1l-2.5-7.3h1l0.8,2.3H63z M60.6,96.3l0.7,2.1c0.2,0.5,0.3,0.9,0.4,1.3h0
			c0.1-0.4,0.2-0.9,0.4-1.3l0.7-2.1H60.6z"/>
	</g>
</g>
</svg>
